Normalized EMG Linear Envelopes
nRows=207
nColumns=4

endheader
time	 med_gas_r	  soleus_r	 tib_ant_r	
12.5746	  0.020285	  0.050303	  0.012550	
12.6079	  0.019237	  0.051513	  0.014208	
12.6411	  0.018327	  0.052064	  0.015472	
12.6744	  0.017645	  0.051606	  0.016193	
12.7077	  0.017270	  0.050139	  0.016562	
12.7409	  0.017223	  0.047933	  0.016864	
12.7742	  0.017425	  0.045352	  0.017189	
12.8075	  0.017703	  0.042730	  0.017402	
12.8407	  0.017863	  0.040355	  0.017381	
12.874	  0.017780	  0.038494	  0.017219	
12.9073	  0.017459	  0.037377	  0.017170	
12.9405	  0.017010	  0.037153	  0.017395	
12.9738	  0.016577	  0.037845	  0.017822	
13.0071	  0.016263	  0.039347	  0.018257	
13.0403	  0.016119	  0.041426	  0.018595	
13.0736	  0.016155	  0.043739	  0.018890	
13.1069	  0.016353	  0.045877	  0.019233	
13.1401	  0.016656	  0.047470	  0.019626	
13.1734	  0.016966	  0.048312	  0.019992	
13.2067	  0.017184	  0.048444	  0.020283	
13.2399	  0.017255	  0.048106	  0.020502	
13.2732	  0.017193	  0.047589	  0.020642	
13.3065	  0.017063	  0.047076	  0.020648	
13.3397	  0.016932	  0.046599	  0.020463	
13.373	  0.016843	  0.046129	  0.020090	
13.4062	  0.016805	  0.045714	  0.019582	
13.4395	  0.016811	  0.045501	  0.019000	
13.4728	  0.016842	  0.045645	  0.018409	
13.506	  0.016865	  0.046177	  0.017894	
13.5393	  0.016837	  0.046952	  0.017509	
13.5726	  0.016716	  0.047724	  0.017207	
13.6058	  0.016491	  0.048269	  0.016854	
13.6391	  0.016195	  0.048491	  0.016369	
13.6724	  0.015898	  0.048425	  0.015847	
13.7056	  0.015662	  0.048186	  0.015507	
13.7389	  0.015515	  0.047913	  0.015470	
13.7722	  0.015451	  0.047727	  0.015587	
13.8054	  0.015460	  0.047728	  0.015485	
13.8387	  0.015551	  0.048014	  0.014816	
13.872	  0.015743	  0.048693	  0.013502	
13.9052	  0.016024	  0.049850	  0.011788	
13.9385	  0.016336	  0.051464	  0.010073	
13.9718	  0.016597	  0.053333	  0.008676	
14.005	  0.016756	  0.055101	  0.007708	
14.0383	  0.016838	  0.056418	  0.007099	
14.0716	  0.016939	  0.057116	  0.006717	
14.1048	  0.017192	  0.057276	  0.006470	
14.1381	  0.017715	  0.057144	  0.006340	
14.1714	  0.018597	  0.057048	  0.006361	
14.2046	  0.019928	  0.057389	  0.006579	
14.2379	  0.021826	  0.058692	  0.007030	
14.2712	  0.024415	  0.061586	  0.007733	
14.3044	  0.027735	  0.066672	  0.008681	
14.3377	  0.031649	  0.074380	  0.009827	
14.371	  0.035840	  0.084861	  0.011091	
14.4042	  0.039960	  0.097920	  0.012378	
14.4375	  0.043837	  0.112974	  0.013619	
14.4708	  0.047585	  0.129067	  0.014776	
14.504	  0.051490	  0.145038	  0.015823	
14.5373	  0.055764	  0.159818	  0.016724	
14.5706	  0.060357	  0.172719	  0.017461	
14.6038	  0.064980	  0.183519	  0.018068	
14.6371	  0.069286	  0.192330	  0.018631	
14.6704	  0.073060	  0.199434	  0.019235	
14.7036	  0.076297	  0.205199	  0.019894	
14.7369	  0.079216	  0.209987	  0.020551	
14.7702	  0.082228	  0.213901	  0.021118	
14.8034	  0.085805	  0.216581	  0.021533	
14.8367	  0.090191	  0.217389	  0.021788	
14.87	  0.095080	  0.216069	  0.021912	
14.9032	  0.099588	  0.213363	  0.021963	
14.9365	  0.102698	  0.210930	  0.022002	
14.9698	  0.103940	  0.210509	  0.022071	
15.003	  0.103762	  0.212948	  0.022167	
15.0363	  0.103326	  0.217841	  0.022251	
15.0696	  0.103913	  0.223967	  0.022291	
15.1028	  0.106381	  0.230123	  0.022322	
15.1361	  0.110874	  0.235763	  0.022440	
15.1694	  0.116741	  0.241187	  0.022749	
15.2026	  0.122660	  0.247274	  0.023284	
15.2359	  0.127061	  0.254929	  0.023984	
15.2692	  0.128799	  0.264424	  0.024716	
15.3024	  0.127689	  0.275050	  0.025333	
15.3357	  0.124522	  0.285508	  0.025732	
15.369	  0.120557	  0.294912	  0.025885	
15.4022	  0.116916	  0.303549	  0.025829	
15.4355	  0.114300	  0.312521	  0.025633	
15.4687	  0.113086	  0.322486	  0.025370	
15.502	  0.113536	  0.332664	  0.025109	
15.5353	  0.115794	  0.341025	  0.024931	
15.5685	  0.119651	  0.345421	  0.024936	
15.6018	  0.124386	  0.344640	  0.025239	
15.6351	  0.128944	  0.338703	  0.025924	
15.6683	  0.132378	  0.328602	  0.026985	
15.7016	  0.134197	  0.316040	  0.028295	
15.7349	  0.134394	  0.303335	  0.029630	
15.7681	  0.133226	  0.293104	  0.030764	
15.8014	  0.131021	  0.287410	  0.031554	
15.8347	  0.128106	  0.286882	  0.031984	
15.8679	  0.124808	  0.290717	  0.032150	
15.9012	  0.121383	  0.297707	  0.032209	
15.9345	  0.117904	  0.307244	  0.032319	
15.9677	  0.114219	  0.319204	  0.032575	
16.001	  0.110122	  0.332863	  0.032968	
16.0343	  0.105627	  0.346103	  0.033388	
16.0675	  0.101104	  0.355861	  0.033688	
16.1008	  0.097124	  0.359567	  0.033763	
16.1341	  0.094161	  0.356492	  0.033593	
16.1673	  0.092422	  0.348141	  0.033226	
16.2006	  0.091911	  0.337509	  0.032727	
16.2339	  0.092547	  0.327720	  0.032157	
16.2671	  0.094195	  0.320844	  0.031587	
16.3004	  0.096624	  0.317497	  0.031113	
16.3337	  0.099561	  0.317284	  0.030844	
16.3669	  0.102800	  0.319516	  0.030859	
16.4002	  0.106182	  0.323513	  0.031156	
16.4335	  0.109408	  0.328342	  0.031632	
16.4667	  0.111888	  0.332587	  0.032123	
16.5	  0.112901	  0.334769	  0.032488	
16.5333	  0.112004	  0.334231	  0.032673	
16.5665	  0.109379	  0.331601	  0.032717	
16.5998	  0.105808	  0.328202	  0.032691	
16.6331	  0.102331	  0.324932	  0.032636	
16.6663	  0.099836	  0.321809	  0.032558	
16.6996	  0.098810	  0.318572	  0.032457	
16.7329	  0.099286	  0.315406	  0.032338	
16.7661	  0.100902	  0.312746	  0.032198	
16.7994	  0.103030	  0.310472	  0.032006	
16.8327	  0.104960	  0.307708	  0.031740	
16.8659	  0.106116	  0.303655	  0.031453	
16.8992	  0.106258	  0.298507	  0.031289	
16.9325	  0.105562	  0.293434	  0.031414	
16.9657	  0.104501	  0.289717	  0.031886	
16.999	  0.103607	  0.287934	  0.032571	
17.0323	  0.103253	  0.287805	  0.033205	
17.0655	  0.103571	  0.288588	  0.033545	
17.0988	  0.104472	  0.289615	  0.033525	
17.1321	  0.105685	  0.290614	  0.033274	
17.1653	  0.106818	  0.291654	  0.033025	
17.1986	  0.107499	  0.292827	  0.032960	
17.2319	  0.107555	  0.294052	  0.033115	
17.2651	  0.107094	  0.295221	  0.033382	
17.2984	  0.106394	  0.296400	  0.033588	
17.3317	  0.105675	  0.297702	  0.033606	
17.3649	  0.104959	  0.298931	  0.033429	
17.3982	  0.104112	  0.299467	  0.033168	
17.4315	  0.102990	  0.298578	  0.032964	
17.4647	  0.101550	  0.295819	  0.032901	
17.498	  0.099881	  0.291258	  0.032962	
17.5312	  0.098176	  0.285524	  0.033079	
17.5645	  0.096697	  0.279628	  0.033211	
17.5978	  0.095657	  0.274346	  0.033363	
17.631	  0.095056	  0.269497	  0.033535	
17.6643	  0.094615	  0.263990	  0.033659	
17.6976	  0.093964	  0.256973	  0.033621	
17.7308	  0.092957	  0.249055	  0.033356	
17.7641	  0.091857	  0.242116	  0.032937	
17.7974	  0.091198	  0.237732	  0.032557	
17.8306	  0.091439	  0.235884	  0.032392	
17.8639	  0.092642	  0.235292	  0.032460	
17.8972	  0.094408	  0.234781	  0.032601	
17.9304	  0.096078	  0.234087	  0.032591	
17.9637	  0.097048	  0.233459	  0.032298	
17.997	  0.097026	  0.232989	  0.031767	
18.0302	  0.096100	  0.232581	  0.031190	
18.0635	  0.094598	  0.232311	  0.030797	
18.0968	  0.092862	  0.232335	  0.030755	
18.13	  0.091050	  0.232285	  0.031131	
18.1633	  0.089081	  0.230980	  0.031915	
18.1966	  0.086735	  0.226994	  0.033047	
18.2298	  0.083840	  0.219572	  0.034382	
18.2631	  0.080436	  0.208937	  0.035635	
18.2964	  0.076824	  0.195781	  0.036407	
18.3296	  0.073532	  0.180696	  0.036373	
18.3629	  0.071217	  0.164239	  0.035492	
18.3962	  0.070468	  0.147404	  0.034076	
18.4294	  0.071473	  0.131757	  0.032608	
18.4627	  0.073689	  0.118913	  0.031449	
18.496	  0.075859	  0.109820	  0.030663	
18.5292	  0.076584	  0.104442	  0.030060	
18.5625	  0.075176	  0.101979	  0.029386	
18.5958	  0.072157	  0.101311	  0.028492	
18.629	  0.068944	  0.101381	  0.027398	
18.6623	  0.066920	  0.101430	  0.026253	
18.6956	  0.066525	  0.101122	  0.025263	
18.7288	  0.066990	  0.100510	  0.024631	
18.7621	  0.066849	  0.099802	  0.024497	
18.7954	  0.064872	  0.099056	  0.024874	
18.8286	  0.060758	  0.098059	  0.025592	
18.8619	  0.055203	  0.096506	  0.026298	
18.8952	  0.049377	  0.094331	  0.026547	
18.9284	  0.044305	  0.091860	  0.025983	
18.9617	  0.040535	  0.089603	  0.024509	
18.995	  0.038194	  0.087885	  0.022332	
19.0282	  0.037247	  0.086646	  0.019848	
19.0615	  0.037745	  0.085605	  0.017439	
19.0948	  0.039885	  0.084572	  0.015337	
19.128	  0.043815	  0.083613	  0.013622	
19.1613	  0.049235	  0.082944	  0.012293	
19.1946	  0.055064	  0.082706	  0.011322	
19.2278	  0.059546	  0.082805	  0.010656	
19.2611	  0.060927	  0.082939	  0.010194	
19.2944	  0.058326	  0.082738	  0.009797	
19.3276	  0.052132	  0.081928	  0.009341	
19.3609	  0.043624	  0.080422	  0.008764	
19.3942	  0.034168	  0.078328	  0.008074	
19.4274	  0.024661	  0.075890	  0.007321	
